
		<svg xmlns="http://www.w3.org/2000/svg" xmlns:xlink="http://www.w3.org/1999/xlink" version="1.1" width="3115.3846153846152" height="1009.6153846153845">
			
			<g transform="scale(5.769230769230769) translate(10, 10)">
				<defs id="SvgjsDefs1376"/><g id="SvgjsG1377" transform="translate(23.99005126953125, 22.994216918945312) scale(2.3451864061323056)" rel="inversefill" name="monogram_container" feature="monogram_container" xmlns:name="monogram_container_inversefill" fill="#fff">   <title xmlns="http://www.w3.org/2000/svg">assets</title>   <path xmlns="http://www.w3.org/2000/svg" d="M473.11,303l-21.41-12.36a3.39,3.39,0,0,1-1.69-2.94V263a3.39,3.39,0,0,1,1.69-2.94l21.41-12.36a3.39,3.39,0,0,1,3.39,0l21.41,12.36A3.39,3.39,0,0,1,499.6,263v24.73a3.39,3.39,0,0,1-1.69,2.94L476.5,303A3.39,3.39,0,0,1,473.11,303Z" transform="translate(-450 -247.24)"/> </g><g id="main_text" rel="mainfill" name="main_text" feature="main_text" xmlns:name="mainText_mainfill" groupName="main_text" fill="#fff" transform="translate(164.0000033686892, 14.321849096738724) scale(4.7097688629076595)"><path d="M11.76 9.56 c1.04 1.06 1.56 2.32 1.56 3.78 s-0.5 2.74 -1.56 3.78 c-1.04 1.04 -2.3 1.56 -3.76 1.56 l-5.34 0 l0 5.32 l-2.66 0 l0 -8 l2.66 0 l5.34 0 c0.72 0 1.34 -0.26 1.86 -0.78 s0.8 -1.14 0.8 -1.88 c0 -0.72 -0.26 -1.36 -0.8 -1.88 c-0.52 -0.52 -1.14 -0.78 -1.86 -0.78 l-5.34 0 l-2.66 -2.68 l8 0 c1.46 0 2.72 0.52 3.76 1.56 z M23.619875 8 c2.22 0 4.08 0.8 5.64 2.36 c1.58 1.56 2.38 3.44 2.38 5.64 c0 2.22 -0.8 4.1 -2.38 5.64 c-1.56 1.56 -3.42 2.36 -5.64 2.36 s-4.08 -0.8 -5.64 -2.36 s-2.36 -3.42 -2.36 -5.64 c0 -2.2 0.8 -4.08 2.36 -5.64 c1.54 -1.56 3.42 -2.36 5.64 -2.36 z M23.619875 10.68 c-1.46 0 -2.72 0.5 -3.78 1.56 c-1.04 1.04 -1.54 2.3 -1.54 3.76 s0.5 2.74 1.54 3.78 s2.32 1.54 3.78 1.54 s2.72 -0.5 3.76 -1.54 c1.06 -1.06 1.56 -2.32 1.56 -3.78 s-0.52 -2.72 -1.56 -3.76 s-2.3 -1.56 -3.76 -1.56 z M37.59975 21.32 l8 0 l0 2.68 l-10.66 0 z M34.93975 8 l2.66 0 l0 0.44 l0 9.26 l-2.66 2.68 l0 -11.94 l0 -0.44 z M49.93962499999999 21.32 l8 0 l0 2.68 l-10.66 0 z M47.279624999999996 8 l2.66 0 l0 0.44 l0 9.26 l-2.66 2.68 l0 -11.94 l0 -0.44 z M67.61949999999999 8 c2.22 0 4.08 0.8 5.64 2.36 c1.58 1.56 2.38 3.44 2.38 5.64 c0 2.22 -0.8 4.1 -2.38 5.64 c-1.56 1.56 -3.42 2.36 -5.64 2.36 s-4.08 -0.8 -5.64 -2.36 s-2.36 -3.42 -2.36 -5.64 c0 -2.2 0.8 -4.08 2.36 -5.64 c1.54 -1.56 3.42 -2.36 5.64 -2.36 z M67.61949999999999 10.68 c-1.46 0 -2.72 0.5 -3.78 1.56 c-1.04 1.04 -1.54 2.3 -1.54 3.76 s0.5 2.74 1.54 3.78 s2.32 1.54 3.78 1.54 s2.72 -0.5 3.76 -1.54 c1.06 -1.06 1.56 -2.32 1.56 -3.78 s-0.52 -2.72 -1.56 -3.76 s-2.3 -1.56 -3.76 -1.56 z"/></g><g id="SvgjsG1379" name="monogram" feature="monogram" rel="mainfill" xmlns:name="monogram_mainfill" fill="#272727" transform="translate(46.006946348481705, 24.055555555555554) scale(3.993055555555556)"><path d="M6.64 18.68 l-1.32 2.64 l-1.36 2.68 l-2.96 0 l8 -16 l5.34 10.68 l-3 0 l-2.34 -4.7 l-2.36 4.7 l0 0 z M15.66 21.34 l1.34 2.66 l-2.98 0 l-1.32 -2.66 l0 0 l2.96 0 z"/></g>
			</g>
		</svg>
	